Maitree-600.ufo
<glyph name="grave" format="2">
	<advance width="323"/>
	<unicode hex="0060"/>
	<note>
		grave
	</note>
	<outline>
		<contour>
			<point x="190" y="538" type="line"/>
			<point x="257" y="582" type="line"/>
			<point x="155" y="755" type="line"/>
			<point x="66" y="697" type="line"/>
		</contour>
	</outline>
</glyph>
<glyph name="bar" format="2">
	<advance width="317"/>
	<unicode hex="007C"/>
	<note>
		bar
	</note>
	<outline>
		<contour>
			<point x="100" y="-123" type="line"/>
			<point x="217" y="-123" type="line"/>
			<point x="217" y="736" type="line"/>
			<point x="100" y="736" type="line"/>
		</contour>
	</outline>
</glyph>
<glyph name="acute" format="2">
	<advance width="322"/>
	<unicode hex="00B4"/>
	<note>
		acute
	</note>
	<outline>
		<contour>
			<point x="137" y="538" type="line"/>
			<point x="260" y="697" type="line"/>
			<point x="172" y="755" type="line"/>
			<point x="69" y="582" type="line"/>
		</contour>
	</outline>
</glyph>
<glyph name="yacute" format="2">
	<advance width="585"/>
	<unicode hex="00FD"/>
	<note>
		yacute
	</note>
	<outline>
		<contour>
			<point x="274" y="561" type="line"/>
			<point x="397" y="720" type="line"/>
			<point x="309" y="778" type="line"/>
			<point x="206" y="605" type="line"/>
		</contour>
		<component base="y"/>
	</outline>
</glyph>
<glyph name="hungarumlaut" format="2">
	<advance width="452"/>
	<unicode hex="02DD"/>
	<note>
		hungarumlaut
	</note>
	<outline>
		<contour>
			<point x="272" y="523" type="line"/>
			<point x="422" y="712" type="line"/>
			<point x="346" y="758" type="line"/>
			<point x="222" y="558" type="line"/>
		</contour>
		<contour>
			<point x="81" y="523" type="line"/>
			<point x="231" y="712" type="line"/>
			<point x="155" y="758" type="line"/>
			<point x="31" y="558" type="line"/>
		</contour>
	</outline>
</glyph>
<glyph name="acutecomb" format="2">
	<advance width="0"/>
	<unicode hex="0301"/>
	<note>
		acutecomb
	</note>
	<outline>
		<contour>
			<point x="-289" y="538" type="line"/>
			<point x="-165" y="697" type="line"/>
			<point x="-254" y="755" type="line"/>
			<point x="-357" y="582" type="line"/>
		</contour>
	</outline>
</glyph>
<glyph name="saraIi-thai" format="2">
	<advance width="0"/>
	<unicode hex="0E35"/>
	<anchor x="-79" y="522" name="top"/>
	<anchor x="-79" y="260" name="_top"/>
	<note>
		saraIi-thai
	</note>
	<outline>
		<contour>
			<point x="-510" y="639" type="curve" smooth="yes"/>
			<point x="-91" y="639" type="line" smooth="yes"/>
			<point x="-82" y="639"/>
			<point x="-75" y="645"/>
			<point x="-75" y="656" type="curve" smooth="yes"/>
			<point x="-75" y="685" type="line"/>
			<point x="-76" y="689"/>
			<point x="-78" y="692"/>
			<point x="-79" y="696" type="curve"/>
			<point x="-79" y="825" type="line" smooth="yes"/>
			<point x="-79" y="844"/>
			<point x="-103" y="856"/>
			<point x="-127" y="856" type="curve" smooth="yes"/>
			<point x="-156" y="856"/>
			<point x="-168" y="848"/>
			<point x="-168" y="833" type="curve" smooth="yes"/>
			<point x="-168" y="718" type="line"/>
			<point x="-142" y="755" type="line"/>
			<point x="-182" y="793"/>
			<point x="-225" y="818"/>
			<point x="-301" y="818" type="curve" smooth="yes"/>
			<point x="-419" y="818"/>
			<point x="-503" y="758"/>
			<point x="-526" y="685" type="curve"/>
			<point x="-526" y="656" type="line" smooth="yes"/>
			<point x="-526" y="645"/>
			<point x="-519" y="639"/>
		</contour>
		<contour>
			<point x="-430" y="693" type="line"/>
			<point x="-416" y="730"/>
			<point x="-366" y="758"/>
			<point x="-300" y="758" type="curve" smooth="yes"/>
			<point x="-235" y="758"/>
			<point x="-185" y="730"/>
			<point x="-171" y="693" type="curve"/>
		</contour>
	</outline>
</glyph>
<glyph name="phinthu-thai" format="2">
	<advance width="0"/>
	<unicode hex="0E3A"/>
	<anchor x="-76" y="0" name="_bottom"/>
	<anchor x="-76" y="-213" name="bottom"/>
	<note>
		phinthu-thai
	</note>
	<outline>
		<contour>
			<point x="-131" y="-203" type="curve" smooth="yes"/>
			<point x="-92" y="-203"/>
			<point x="-56" y="-172"/>
			<point x="-56" y="-127" type="curve" smooth="yes"/>
			<point x="-56" y="-83"/>
			<point x="-92" y="-53"/>
			<point x="-131" y="-53" type="curve" smooth="yes"/>
			<point x="-171" y="-53"/>
			<point x="-207" y="-83"/>
			<point x="-207" y="-127" type="curve" smooth="yes"/>
			<point x="-207" y="-172"/>
			<point x="-171" y="-203"/>
		</contour>
	</outline>
</glyph>
<glyph name="maiEk-thai" format="2">
	<advance width="0"/>
	<unicode hex="0E48"/>
	<anchor x="-80" y="547" name="top"/>
	<anchor x="-80" y="260" name="_top"/>
	<note>
		maiEk-thai
	</note>
	<outline>
		<contour>
			<point x="-124" y="639" type="curve" smooth="yes"/>
			<point x="-96" y="639"/>
			<point x="-80" y="656"/>
			<point x="-80" y="675" type="curve" smooth="yes"/>
			<point x="-80" y="802" type="line" smooth="yes"/>
			<point x="-80" y="832"/>
			<point x="-98" y="850"/>
			<point x="-134" y="850" type="curve" smooth="yes"/>
			<point x="-162" y="850"/>
			<point x="-178" y="834"/>
			<point x="-178" y="814" type="curve" smooth="yes"/>
			<point x="-178" y="687" type="line" smooth="yes"/>
			<point x="-178" y="657"/>
			<point x="-160" y="639"/>
		</contour>
	</outline>
</glyph>
<glyph name="nikhahit-thai" format="2">
	<advance width="0"/>
	<unicode hex="0E4D"/>
	<anchor x="-80" y="535" name="top"/>
	<anchor x="-80" y="260" name="_top"/>
	<note>
		nikhahit-thai
	</note>
	<outline>
		<contour>
			<point x="-135" y="629" type="curve" smooth="yes"/>
			<point x="-80" y="629"/>
			<point x="-28" y="665"/>
			<point x="-28" y="731" type="curve" smooth="yes"/>
			<point x="-28" y="798"/>
			<point x="-80" y="834"/>
			<point x="-135" y="834" type="curve" smooth="yes"/>
			<point x="-191" y="834"/>
			<point x="-243" y="798"/>
			<point x="-243" y="731" type="curve" smooth="yes"/>
			<point x="-243" y="665"/>
			<point x="-191" y="629"/>
		</contour>
		<contour>
			<point x="-134" y="686" type="curve" smooth="yes"/>
			<point x="-158" y="686"/>
			<point x="-177" y="702"/>
			<point x="-177" y="731" type="curve" smooth="yes"/>
			<point x="-177" y="761"/>
			<point x="-158" y="776"/>
			<point x="-134" y="776" type="curve" smooth="yes"/>
			<point x="-112" y="776"/>
			<point x="-93" y="761"/>
			<point x="-93" y="731" type="curve" smooth="yes"/>
			<point x="-93" y="703"/>
			<point x="-112" y="686"/>
		</contour>
	</outline>
</glyph>
<glyph name="rdotbelowmacron" format="2">
	<advance width="463"/>
	<unicode hex="1E5D"/>
	<note>
		rdotbelowmacron
	</note>
	<outline>
		<contour>
			<point x="177" y="-192" type="curve" smooth="yes"/>
			<point x="211" y="-192"/>
			<point x="240" y="-166"/>
			<point x="240" y="-129" type="curve" smooth="yes"/>
			<point x="240" y="-93"/>
			<point x="211" y="-66"/>
			<point x="177" y="-66" type="curve" smooth="yes"/>
			<point x="142" y="-66"/>
			<point x="114" y="-93"/>
			<point x="114" y="-129" type="curve" smooth="yes"/>
			<point x="114" y="-166"/>
			<point x="142" y="-192"/>
		</contour>
		<contour>
			<point x="76" y="588" type="line"/>
			<point x="370" y="588" type="line"/>
			<point x="370" y="667" type="line"/>
			<point x="76" y="667" type="line"/>
		</contour>
		<component base="r" xOffset="2"/>
	</outline>
</glyph>
<glyph name="Ocircumflextilde" format="2">
	<advance width="756"/>
	<unicode hex="1ED6"/>
	<note>
		Ocircumflextilde
	</note>
	<outline>
		<contour>
			<point x="378" y="-14" type="curve" smooth="yes"/>
			<point x="566" y="-14"/>
			<point x="713" y="97"/>
			<point x="713" y="347" type="curve" smooth="yes"/>
			<point x="713" y="596"/>
			<point x="566" y="709"/>
			<point x="378" y="709" type="curve" smooth="yes"/>
			<point x="190" y="709"/>
			<point x="43" y="596"/>
			<point x="43" y="347" type="curve" smooth="yes"/>
			<point x="43" y="97"/>
			<point x="190" y="-14"/>
		</contour>
		<contour>
			<point x="378" y="66" type="curve" smooth="yes"/>
			<point x="242" y="66"/>
			<point x="170" y="167"/>
			<point x="170" y="347" type="curve" smooth="yes"/>
			<point x="170" y="527"/>
			<point x="242" y="629"/>
			<point x="378" y="629" type="curve" smooth="yes"/>
			<point x="515" y="629"/>
			<point x="586" y="527"/>
			<point x="586" y="347" type="curve" smooth="yes"/>
			<point x="586" y="167"/>
			<point x="515" y="66"/>
		</contour>
		<contour>
			<point x="283" y="753" type="line"/>
			<point x="378" y="860" type="line"/>
			<point x="473" y="753" type="line"/>
			<point x="525" y="798" type="line"/>
			<point x="407" y="952" type="line"/>
			<point x="350" y="952" type="line"/>
			<point x="231" y="798" type="line"/>
		</contour>
		<contour>
			<point x="432" y="981" type="curve" smooth="yes"/>
			<point x="459" y="981"/>
			<point x="488" y="997"/>
			<point x="513" y="1022" type="curve"/>
			<point x="480" y="1069" type="line"/>
			<point x="464" y="1057"/>
			<point x="449" y="1050"/>
			<point x="431" y="1050" type="curve" smooth="yes"/>
			<point x="397" y="1050"/>
			<point x="368" y="1081"/>
			<point x="331" y="1081" type="curve" smooth="yes"/>
			<point x="305" y="1081"/>
			<point x="273" y="1063"/>
			<point x="248" y="1041" type="curve"/>
			<point x="281" y="992" type="line"/>
			<point x="296" y="1004"/>
			<point x="310" y="1013"/>
			<point x="331" y="1013" type="curve" smooth="yes"/>
			<point x="366" y="1013"/>
			<point x="394" y="981"/>
		</contour>
	</outline>
</glyph>
<glyph name="ocircumflextilde" format="2">
	<advance width="559"/>
	<unicode hex="1ED7"/>
	<note>
		ocircumflextilde
	</note>
	<outline>
		<contour>
			<point x="280" y="-14" type="curve" smooth="yes"/>
			<point x="416" y="-14"/>
			<point x="526" y="71"/>
			<point x="526" y="244" type="curve" smooth="yes"/>
			<point x="526" y="417"/>
			<point x="416" y="501"/>
			<point x="280" y="501" type="curve" smooth="yes"/>
			<point x="143" y="501"/>
			<point x="33" y="417"/>
			<point x="33" y="244" type="curve" smooth="yes"/>
			<point x="33" y="71"/>
			<point x="143" y="-14"/>
		</contour>
		<contour>
			<point x="280" y="58" type="curve" smooth="yes"/>
			<point x="197" y="58"/>
			<point x="151" y="124"/>
			<point x="151" y="244" type="curve" smooth="yes"/>
			<point x="151" y="363"/>
			<point x="197" y="429"/>
			<point x="280" y="429" type="curve" smooth="yes"/>
			<point x="363" y="429"/>
			<point x="409" y="363"/>
			<point x="409" y="244" type="curve" smooth="yes"/>
			<point x="409" y="124"/>
			<point x="363" y="58"/>
		</contour>
		<contour>
			<point x="185" y="551" type="line"/>
			<point x="280" y="658" type="line"/>
			<point x="375" y="551" type="line"/>
			<point x="427" y="596" type="line"/>
			<point x="309" y="750" type="line"/>
			<point x="252" y="750" type="line"/>
			<point x="133" y="596" type="line"/>
		</contour>
		<contour>
			<point x="334" y="779" type="curve" smooth="yes"/>
			<point x="361" y="779"/>
			<point x="390" y="795"/>
			<point x="415" y="820" type="curve"/>
			<point x="382" y="867" type="line"/>
			<point x="366" y="855"/>
			<point x="351" y="848"/>
			<point x="333" y="848" type="curve" smooth="yes"/>
			<point x="299" y="848"/>
			<point x="270" y="879"/>
			<point x="233" y="879" type="curve" smooth="yes"/>
			<point x="207" y="879"/>
			<point x="175" y="861"/>
			<point x="150" y="839" type="curve"/>
			<point x="183" y="790" type="line"/>
			<point x="198" y="802"/>
			<point x="212" y="811"/>
			<point x="233" y="811" type="curve" smooth="yes"/>
			<point x="268" y="811"/>
			<point x="296" y="779"/>
		</contour>
	</outline>
</glyph>
<glyph name="emdash" format="2">
	<advance width="879"/>
	<unicode hex="2014"/>
	<note>
		emdash
	</note>
	<outline>
		<contour>
			<point x="6" y="256" type="line"/>
			<point x="873" y="256" type="line"/>
			<point x="873" y="352" type="line"/>
			<point x="6" y="352" type="line"/>
		</contour>
	</outline>
</glyph>
<glyph name="second" format="2">
	<advance width="446"/>
	<unicode hex="2033"/>
	<note>
		second
	</note>
	<outline>
		<contour>
			<point x="255" y="372" type="line"/>
			<point x="334" y="372" type="line"/>
			<point x="375" y="700" type="line"/>
			<point x="270" y="710" type="line"/>
		</contour>
		<contour>
			<point x="71" y="372" type="line"/>
			<point x="150" y="372" type="line"/>
			<point x="191" y="700" type="line"/>
			<point x="86" y="710" type="line"/>
		</contour>
	</outline>
</glyph>
<glyph name="triagdn" format="2">
	<advance width="727"/>
	<unicode hex="25BC"/>
	<note>
		triagdn
	</note>
	<outline>
		<contour>
			<point x="364" y="-4" type="line"/>
			<point x="661" y="540" type="line"/>
			<point x="66" y="540" type="line"/>
		</contour>
	</outline>
</glyph>
<glyph name="nikhahit_maiChattawa-thai.narrow" format="2">
	<advance width="0"/>
	<anchor x="-322" y="512" name="top"/>
	<anchor x="-277" y="260" name="_top"/>
	<outline>
		<contour>
			<point x="-369" y="629" type="curve" smooth="yes"/>
			<point x="-314" y="629"/>
			<point x="-262" y="665"/>
			<point x="-262" y="731" type="curve" smooth="yes"/>
			<point x="-262" y="798"/>
			<point x="-314" y="834"/>
			<point x="-369" y="834" type="curve" smooth="yes"/>
			<point x="-425" y="834"/>
			<point x="-477" y="798"/>
			<point x="-477" y="731" type="curve" smooth="yes"/>
			<point x="-477" y="665"/>
			<point x="-425" y="629"/>
		</contour>
		<contour>
			<point x="-370" y="686" type="curve" smooth="yes"/>
			<point x="-393" y="686"/>
			<point x="-412" y="702"/>
			<point x="-412" y="731" type="curve" smooth="yes"/>
			<point x="-412" y="761"/>
			<point x="-393" y="776"/>
			<point x="-370" y="776" type="curve" smooth="yes"/>
			<point x="-347" y="776"/>
			<point x="-328" y="761"/>
			<point x="-328" y="731" type="curve" smooth="yes"/>
			<point x="-328" y="703"/>
			<point x="-347" y="686"/>
		</contour>
		<contour>
			<point x="-351" y="889" type="curve" smooth="yes"/>
			<point x="-324" y="889"/>
			<point x="-310" y="907"/>
			<point x="-313" y="935" type="curve" smooth="yes"/>
			<point x="-319" y="984" type="line"/>
			<point x="-290" y="980" type="line" smooth="yes"/>
			<point x="-252" y="975"/>
			<point x="-226" y="984"/>
			<point x="-226" y="1022" type="curve" smooth="yes"/>
			<point x="-226" y="1052"/>
			<point x="-244" y="1061"/>
			<point x="-281" y="1056" type="curve" smooth="yes"/>
			<point x="-319" y="1052" type="line"/>
			<point x="-315" y="1083" type="line" smooth="yes"/>
			<point x="-309" y="1121"/>
			<point x="-322" y="1147"/>
			<point x="-361" y="1147" type="curve" smooth="yes"/>
			<point x="-387" y="1147"/>
			<point x="-403" y="1129"/>
			<point x="-399" y="1101" type="curve" smooth="yes"/>
			<point x="-392" y="1052" type="line"/>
			<point x="-422" y="1056" type="line" smooth="yes"/>
			<point x="-460" y="1061"/>
			<point x="-485" y="1052"/>
			<point x="-485" y="1014" type="curve" smooth="yes"/>
			<point x="-485" y="984"/>
			<point x="-467" y="976"/>
			<point x="-431" y="980" type="curve" smooth="yes"/>
			<point x="-392" y="984" type="line"/>
			<point x="-396" y="953" type="line" smooth="yes"/>
			<point x="-401" y="915"/>
			<point x="-389" y="889"/>
		</contour>
	</outline>
</glyph>
<glyph name="nikhahit_maiEk-thai" format="2">
	<advance width="0"/>
	<anchor x="-80" y="535" name="top"/>
	<anchor x="-80" y="260" name="_top"/>
	<outline>
		<contour>
			<point x="-135" y="629" type="curve" smooth="yes"/>
			<point x="-80" y="629"/>
			<point x="-28" y="665"/>
			<point x="-28" y="731" type="curve" smooth="yes"/>
			<point x="-28" y="798"/>
			<point x="-80" y="834"/>
			<point x="-135" y="834" type="curve" smooth="yes"/>
			<point x="-191" y="834"/>
			<point x="-243" y="798"/>
			<point x="-243" y="731" type="curve" smooth="yes"/>
			<point x="-243" y="665"/>
			<point x="-191" y="629"/>
		</contour>
		<contour>
			<point x="-134" y="686" type="curve" smooth="yes"/>
			<point x="-158" y="686"/>
			<point x="-177" y="702"/>
			<point x="-177" y="731" type="curve" smooth="yes"/>
			<point x="-177" y="761"/>
			<point x="-158" y="776"/>
			<point x="-134" y="776" type="curve" smooth="yes"/>
			<point x="-112" y="776"/>
			<point x="-93" y="761"/>
			<point x="-93" y="731" type="curve" smooth="yes"/>
			<point x="-93" y="703"/>
			<point x="-112" y="686"/>
		</contour>
		<contour>
			<point x="-115" y="888" type="curve" smooth="yes"/>
			<point x="-87" y="888"/>
			<point x="-80" y="905"/>
			<point x="-80" y="924" type="curve" smooth="yes"/>
			<point x="-80" y="1037" type="line" smooth="yes"/>
			<point x="-80" y="1067"/>
			<point x="-89" y="1086"/>
			<point x="-126" y="1086" type="curve" smooth="yes"/>
			<point x="-151" y="1086"/>
			<point x="-162" y="1069"/>
			<point x="-162" y="1049" type="curve" smooth="yes"/>
			<point x="-162" y="936" type="line" smooth="yes"/>
			<point x="-162" y="907"/>
			<point x="-149" y="888"/>
		</contour>
	</outline>
</glyph>
<glyph name="nikhahit_maiEk-thai.narrow" format="2">
	<advance width="0"/>
	<anchor x="-322" y="512" name="top"/>
	<anchor x="-277" y="260" name="_top"/>
	<outline>
		<contour>
			<point x="-369" y="629" type="curve" smooth="yes"/>
			<point x="-314" y="629"/>
			<point x="-262" y="665"/>
			<point x="-262" y="731" type="curve" smooth="yes"/>
			<point x="-262" y="798"/>
			<point x="-314" y="834"/>
			<point x="-369" y="834" type="curve" smooth="yes"/>
			<point x="-425" y="834"/>
			<point x="-477" y="798"/>
			<point x="-477" y="731" type="curve" smooth="yes"/>
			<point x="-477" y="665"/>
			<point x="-425" y="629"/>
		</contour>
		<contour>
			<point x="-370" y="686" type="curve" smooth="yes"/>
			<point x="-393" y="686"/>
			<point x="-412" y="702"/>
			<point x="-412" y="731" type="curve" smooth="yes"/>
			<point x="-412" y="761"/>
			<point x="-393" y="776"/>
			<point x="-370" y="776" type="curve" smooth="yes"/>
			<point x="-347" y="776"/>
			<point x="-328" y="761"/>
			<point x="-328" y="731" type="curve" smooth="yes"/>
			<point x="-328" y="703"/>
			<point x="-347" y="686"/>
		</contour>
		<contour>
			<point x="-355" y="888" type="curve" smooth="yes"/>
			<point x="-327" y="888"/>
			<point x="-320" y="905"/>
			<point x="-320" y="924" type="curve" smooth="yes"/>
			<point x="-320" y="1037" type="line" smooth="yes"/>
			<point x="-320" y="1067"/>
			<point x="-329" y="1086"/>
			<point x="-366" y="1086" type="curve" smooth="yes"/>
			<point x="-391" y="1086"/>
			<point x="-402" y="1069"/>
			<point x="-402" y="1049" type="curve" smooth="yes"/>
			<point x="-402" y="936" type="line" smooth="yes"/>
			<point x="-402" y="907"/>
			<point x="-389" y="888"/>
		</contour>
	</outline>
</glyph>
<glyph name="nikhahit_maiTho-thai" format="2">
	<advance width="0"/>
	<anchor x="-80" y="535" name="top"/>
	<anchor x="-80" y="260" name="_top"/>
	<outline>
		<contour>
			<point x="-135" y="629" type="curve" smooth="yes"/>
			<point x="-80" y="629"/>
			<point x="-28" y="665"/>
			<point x="-28" y="731" type="curve" smooth="yes"/>
			<point x="-28" y="798"/>
			<point x="-80" y="834"/>
			<point x="-135" y="834" type="curve" smooth="yes"/>
			<point x="-191" y="834"/>
			<point x="-243" y="798"/>
			<point x="-243" y="731" type="curve" smooth="yes"/>
			<point x="-243" y="665"/>
			<point x="-191" y="629"/>
		</contour>
		<contour>
			<point x="-134" y="686" type="curve" smooth="yes"/>
			<point x="-158" y="686"/>
			<point x="-177" y="702"/>
			<point x="-177" y="731" type="curve" smooth="yes"/>
			<point x="-177" y="761"/>
			<point x="-158" y="776"/>
			<point x="-134" y="776" type="curve" smooth="yes"/>
			<point x="-112" y="776"/>
			<point x="-93" y="761"/>
			<point x="-93" y="731" type="curve" smooth="yes"/>
			<point x="-93" y="703"/>
			<point x="-112" y="686"/>
		</contour>
		<contour>
			<point x="-262" y="886" type="curve" smooth="yes"/>
			<point x="-122" y="887"/>
			<point x="-46" y="923"/>
			<point x="4" y="1001" type="curve" smooth="yes"/>
			<point x="16" y="1020"/>
			<point x="27" y="1042"/>
			<point x="27" y="1065" type="curve" smooth="yes"/>
			<point x="27" y="1087"/>
			<point x="11" y="1105"/>
			<point x="-20" y="1105" type="curve" smooth="yes"/>
			<point x="-36" y="1105"/>
			<point x="-43" y="1097"/>
			<point x="-48" y="1082" type="curve" smooth="yes"/>
			<point x="-75" y="1000"/>
			<point x="-108" y="956"/>
			<point x="-199" y="941" type="curve"/>
			<point x="-170" y="965"/>
			<point x="-155" y="999"/>
			<point x="-155" y="1034" type="curve" smooth="yes"/>
			<point x="-155" y="1077"/>
			<point x="-181" y="1115"/>
			<point x="-234" y="1115" type="curve" smooth="yes"/>
			<point x="-276" y="1115"/>
			<point x="-306" y="1087"/>
			<point x="-306" y="1049" type="curve" smooth="yes"/>
			<point x="-306" y="1012"/>
			<point x="-276" y="987"/>
			<point x="-244" y="987" type="curve" smooth="yes"/>
			<point x="-235" y="987"/>
			<point x="-228" y="989"/>
			<point x="-223" y="992" type="curve"/>
			<point x="-220" y="989" type="line"/>
			<point x="-229" y="973"/>
			<point x="-252" y="953"/>
			<point x="-275" y="943" type="curve"/>
			<point x="-275" y="897" type="line" smooth="yes"/>
			<point x="-275" y="889"/>
			<point x="-270" y="886"/>
		</contour>
		<contour>
			<point x="-234" y="1021" type="curve" smooth="yes"/>
			<point x="-251" y="1021"/>
			<point x="-263" y="1033"/>
			<point x="-263" y="1051" type="curve" smooth="yes"/>
			<point x="-263" y="1070"/>
			<point x="-251" y="1081"/>
			<point x="-234" y="1081" type="curve" smooth="yes"/>
			<point x="-218" y="1081"/>
			<point x="-205" y="1070"/>
			<point x="-205" y="1051" type="curve" smooth="yes"/>
			<point x="-205" y="1030"/>
			<point x="-218" y="1021"/>
		</contour>
	</outline>
</glyph>
<glyph name="nikhahit_maiTho-thai.narrow" format="2">
	<advance width="0"/>
	<anchor x="-322" y="512" name="top"/>
	<anchor x="-277" y="260" name="_top"/>
	<outline>
		<contour>
			<point x="-369" y="629" type="curve" smooth="yes"/>
			<point x="-314" y="629"/>
			<point x="-262" y="665"/>
			<point x="-262" y="731" type="curve" smooth="yes"/>
			<point x="-262" y="798"/>
			<point x="-314" y="834"/>
			<point x="-369" y="834" type="curve" smooth="yes"/>
			<point x="-425" y="834"/>
			<point x="-477" y="798"/>
			<point x="-477" y="731" type="curve" smooth="yes"/>
			<point x="-477" y="665"/>
			<point x="-425" y="629"/>
		</contour>
		<contour>
			<point x="-370" y="686" type="curve" smooth="yes"/>
			<point x="-393" y="686"/>
			<point x="-412" y="702"/>
			<point x="-412" y="731" type="curve" smooth="yes"/>
			<point x="-412" y="761"/>
			<point x="-393" y="776"/>
			<point x="-370" y="776" type="curve" smooth="yes"/>
			<point x="-347" y="776"/>
			<point x="-328" y="761"/>
			<point x="-328" y="731" type="curve" smooth="yes"/>
			<point x="-328" y="703"/>
			<point x="-347" y="686"/>
		</contour>
		<contour>
			<point x="-478" y="886" type="curve" smooth="yes"/>
			<point x="-338" y="887"/>
			<point x="-262" y="923"/>
			<point x="-212" y="1001" type="curve" smooth="yes"/>
			<point x="-200" y="1020"/>
			<point x="-189" y="1042"/>
			<point x="-189" y="1065" type="curve" smooth="yes"/>
			<point x="-189" y="1087"/>
			<point x="-205" y="1105"/>
			<point x="-236" y="1105" type="curve" smooth="yes"/>
			<point x="-252" y="1105"/>
			<point x="-259" y="1097"/>
			<point x="-264" y="1082" type="curve" smooth="yes"/>
			<point x="-291" y="1000"/>
			<point x="-324" y="956"/>
			<point x="-415" y="941" type="curve"/>
			<point x="-386" y="965"/>
			<point x="-371" y="999"/>
			<point x="-371" y="1034" type="curve" smooth="yes"/>
			<point x="-371" y="1077"/>
			<point x="-397" y="1115"/>
			<point x="-450" y="1115" type="curve" smooth="yes"/>
			<point x="-492" y="1115"/>
			<point x="-522" y="1087"/>
			<point x="-522" y="1049" type="curve" smooth="yes"/>
			<point x="-522" y="1012"/>
			<point x="-492" y="987"/>
			<point x="-460" y="987" type="curve" smooth="yes"/>
			<point x="-451" y="987"/>
			<point x="-444" y="989"/>
			<point x="-439" y="992" type="curve"/>
			<point x="-436" y="989" type="line"/>
			<point x="-445" y="973"/>
			<point x="-468" y="953"/>
			<point x="-491" y="943" type="curve"/>
			<point x="-491" y="897" type="line" smooth="yes"/>
			<point x="-491" y="889"/>
			<point x="-486" y="886"/>
		</contour>
		<contour>
			<point x="-450" y="1021" type="curve" smooth="yes"/>
			<point x="-467" y="1021"/>
			<point x="-479" y="1033"/>
			<point x="-479" y="1051" type="curve" smooth="yes"/>
			<point x="-479" y="1070"/>
			<point x="-467" y="1081"/>
			<point x="-450" y="1081" type="curve" smooth="yes"/>
			<point x="-434" y="1081"/>
			<point x="-421" y="1070"/>
			<point x="-421" y="1051" type="curve" smooth="yes"/>
			<point x="-421" y="1030"/>
			<point x="-434" y="1021"/>
		</contour>
	</outline>
</glyph>
<glyph name="nikhahit_maiTri-thai" format="2">
	<advance width="0"/>
	<anchor x="-80" y="535" name="top"/>
	<anchor x="-80" y="260" name="_top"/>
	<outline>
		<contour>
			<point x="-135" y="629" type="curve" smooth="yes"/>
			<point x="-80" y="629"/>
			<point x="-28" y="665"/>
			<point x="-28" y="731" type="curve" smooth="yes"/>
			<point x="-28" y="798"/>
			<point x="-80" y="834"/>
			<point x="-135" y="834" type="curve" smooth="yes"/>
			<point x="-191" y="834"/>
			<point x="-243" y="798"/>
			<point x="-243" y="731" type="curve" smooth="yes"/>
			<point x="-243" y="665"/>
			<point x="-191" y="629"/>
		</contour>
		<contour>
			<point x="-134" y="686" type="curve" smooth="yes"/>
			<point x="-158" y="686"/>
			<point x="-177" y="702"/>
			<point x="-177" y="731" type="curve" smooth="yes"/>
			<point x="-177" y="761"/>
			<point x="-158" y="776"/>
			<point x="-134" y="776" type="curve" smooth="yes"/>
			<point x="-112" y="776"/>
			<point x="-93" y="761"/>
			<point x="-93" y="731" type="curve" smooth="yes"/>
			<point x="-93" y="703"/>
			<point x="-112" y="686"/>
		</contour>
		<contour>
			<point x="-261" y="882" type="curve" smooth="yes"/>
			<point x="-221" y="882"/>
			<point x="-192" y="908"/>
			<point x="-192" y="944" type="curve" smooth="yes"/>
			<point x="-192" y="982"/>
			<point x="-220" y="1004"/>
			<point x="-251" y="1004" type="curve" smooth="yes"/>
			<point x="-260" y="1004"/>
			<point x="-267" y="1001"/>
			<point x="-273" y="998" type="curve"/>
			<point x="-275" y="1001" type="line"/>
			<point x="-275" y="1028"/>
			<point x="-260" y="1042"/>
			<point x="-240" y="1042" type="curve" smooth="yes"/>
			<point x="-219" y="1042"/>
			<point x="-204" y="1026"/>
			<point x="-203" y="1010" type="curve"/>
			<point x="-173" y="1010" type="line"/>
			<point x="-172" y="1027"/>
			<point x="-163" y="1042"/>
			<point x="-145" y="1042" type="curve" smooth="yes"/>
			<point x="-127" y="1042"/>
			<point x="-120" y="1030"/>
			<point x="-120" y="1007" type="curve" smooth="yes"/>
			<point x="-120" y="907" type="line" smooth="yes"/>
			<point x="-120" y="896"/>
			<point x="-114" y="891"/>
			<point x="-104" y="891" type="curve" smooth="yes"/>
			<point x="-19" y="891" type="line" smooth="yes"/>
			<point x="27" y="891"/>
			<point x="56" y="907"/>
			<point x="56" y="956" type="curve" smooth="yes"/>
			<point x="56" y="1074" type="line" smooth="yes"/>
			<point x="56" y="1103"/>
			<point x="40" y="1113"/>
			<point x="18" y="1113" type="curve" smooth="yes"/>
			<point x="0" y="1113"/>
			<point x="-12" y="1101"/>
			<point x="-12" y="1084" type="curve" smooth="yes"/>
			<point x="-12" y="957" type="line" smooth="yes"/>
			<point x="-12" y="937"/>
			<point x="-21" y="928"/>
			<point x="-40" y="928" type="curve" smooth="yes"/>
			<point x="-51" y="928" type="line"/>
			<point x="-51" y="1024" type="line" smooth="yes"/>
			<point x="-51" y="1069"/>
			<point x="-77" y="1096"/>
			<point x="-124" y="1096" type="curve" smooth="yes"/>
			<point x="-154" y="1096"/>
			<point x="-178" y="1078"/>
			<point x="-187" y="1058" type="curve"/>
			<point x="-195" y="1079"/>
			<point x="-220" y="1096"/>
			<point x="-251" y="1096" type="curve" smooth="yes"/>
			<point x="-305" y="1096"/>
			<point x="-345" y="1057"/>
			<point x="-345" y="980" type="curve" smooth="yes"/>
			<point x="-345" y="917"/>
			<point x="-306" y="882"/>
		</contour>
		<contour>
			<point x="-261" y="914" type="curve" smooth="yes"/>
			<point x="-276" y="914"/>
			<point x="-289" y="925"/>
			<point x="-289" y="943" type="curve" smooth="yes"/>
			<point x="-289" y="963"/>
			<point x="-276" y="972"/>
			<point x="-261" y="972" type="curve" smooth="yes"/>
			<point x="-245" y="972"/>
			<point x="-234" y="960"/>
			<point x="-234" y="943" type="curve" smooth="yes"/>
			<point x="-234" y="925"/>
			<point x="-245" y="914"/>
		</contour>
	</outline>
</glyph>
<glyph name="nikhahit_maiTri-thai.narrow" format="2">
	<advance width="0"/>
	<anchor x="-322" y="512" name="top"/>
	<anchor x="-277" y="260" name="_top"/>
	<outline>
		<contour>
			<point x="-369" y="629" type="curve" smooth="yes"/>
			<point x="-314" y="629"/>
			<point x="-262" y="665"/>
			<point x="-262" y="731" type="curve" smooth="yes"/>
			<point x="-262" y="798"/>
			<point x="-314" y="834"/>
			<point x="-369" y="834" type="curve" smooth="yes"/>
			<point x="-425" y="834"/>
			<point x="-477" y="798"/>
			<point x="-477" y="731" type="curve" smooth="yes"/>
			<point x="-477" y="665"/>
			<point x="-425" y="629"/>
		</contour>
		<contour>
			<point x="-370" y="686" type="curve" smooth="yes"/>
			<point x="-393" y="686"/>
			<point x="-412" y="702"/>
			<point x="-412" y="731" type="curve" smooth="yes"/>
			<point x="-412" y="761"/>
			<point x="-393" y="776"/>
			<point x="-370" y="776" type="curve" smooth="yes"/>
			<point x="-347" y="776"/>
			<point x="-328" y="761"/>
			<point x="-328" y="731" type="curve" smooth="yes"/>
			<point x="-328" y="703"/>
			<point x="-347" y="686"/>
		</contour>
		<contour>
			<point x="-471" y="882" type="curve" smooth="yes"/>
			<point x="-431" y="882"/>
			<point x="-402" y="908"/>
			<point x="-402" y="944" type="curve" smooth="yes"/>
			<point x="-402" y="982"/>
			<point x="-430" y="1004"/>
			<point x="-461" y="1004" type="curve" smooth="yes"/>
			<point x="-470" y="1004"/>
			<point x="-477" y="1001"/>
			<point x="-483" y="998" type="curve"/>
			<point x="-485" y="1001" type="line"/>
			<point x="-485" y="1028"/>
			<point x="-470" y="1042"/>
			<point x="-450" y="1042" type="curve" smooth="yes"/>
			<point x="-429" y="1042"/>
			<point x="-414" y="1026"/>
			<point x="-413" y="1010" type="curve"/>
			<point x="-383" y="1010" type="line"/>
			<point x="-382" y="1027"/>
			<point x="-373" y="1042"/>
			<point x="-355" y="1042" type="curve" smooth="yes"/>
			<point x="-337" y="1042"/>
			<point x="-330" y="1030"/>
			<point x="-330" y="1007" type="curve" smooth="yes"/>
			<point x="-330" y="907" type="line" smooth="yes"/>
			<point x="-330" y="896"/>
			<point x="-324" y="891"/>
			<point x="-314" y="891" type="curve" smooth="yes"/>
			<point x="-229" y="891" type="line" smooth="yes"/>
			<point x="-183" y="891"/>
			<point x="-154" y="907"/>
			<point x="-154" y="956" type="curve" smooth="yes"/>
			<point x="-154" y="1074" type="line" smooth="yes"/>
			<point x="-154" y="1103"/>
			<point x="-170" y="1113"/>
			<point x="-192" y="1113" type="curve" smooth="yes"/>
			<point x="-210" y="1113"/>
			<point x="-222" y="1101"/>
			<point x="-222" y="1084" type="curve" smooth="yes"/>
			<point x="-222" y="957" type="line" smooth="yes"/>
			<point x="-222" y="937"/>
			<point x="-231" y="928"/>
			<point x="-250" y="928" type="curve" smooth="yes"/>
			<point x="-261" y="928" type="line"/>
			<point x="-261" y="1024" type="line" smooth="yes"/>
			<point x="-261" y="1069"/>
			<point x="-287" y="1096"/>
			<point x="-334" y="1096" type="curve" smooth="yes"/>
			<point x="-364" y="1096"/>
			<point x="-388" y="1078"/>
			<point x="-397" y="1058" type="curve"/>
			<point x="-405" y="1079"/>
			<point x="-430" y="1096"/>
			<point x="-461" y="1096" type="curve" smooth="yes"/>
			<point x="-515" y="1096"/>
			<point x="-555" y="1057"/>
			<point x="-555" y="980" type="curve" smooth="yes"/>
			<point x="-555" y="917"/>
			<point x="-516" y="882"/>
		</contour>
		<contour>
			<point x="-471" y="914" type="curve" smooth="yes"/>
			<point x="-486" y="914"/>
			<point x="-499" y="925"/>
			<point x="-499" y="943" type="curve" smooth="yes"/>
			<point x="-499" y="963"/>
			<point x="-486" y="972"/>
			<point x="-471" y="972" type="curve" smooth="yes"/>
			<point x="-455" y="972"/>
			<point x="-444" y="960"/>
			<point x="-444" y="943" type="curve" smooth="yes"/>
			<point x="-444" y="925"/>
			<point x="-455" y="914"/>
		</contour>
	</outline>
</glyph>
<glyph name="phinthu-thai.small" format="2">
	<advance width="0"/>
	<anchor x="-82" y="-210" name="_bottom"/>
	<anchor x="-82" y="-436" name="bottom"/>
	<note>
		phinthu-thai.small
	</note>
	<outline>
		<contour>
			<point x="-140" y="-411" type="curve" smooth="yes"/>
			<point x="-100" y="-411"/>
			<point x="-65" y="-379"/>
			<point x="-65" y="-335" type="curve" smooth="yes"/>
			<point x="-65" y="-291"/>
			<point x="-100" y="-260"/>
			<point x="-140" y="-260" type="curve" smooth="yes"/>
			<point x="-180" y="-260"/>
			<point x="-215" y="-291"/>
			<point x="-215" y="-335" type="curve" smooth="yes"/>
			<point x="-215" y="-379"/>
			<point x="-180" y="-411"/>
		</contour>
	</outline>
</glyph>
<glyph name="saraI-thai.narrow" format="2">
	<advance width="0"/>
	<anchor x="-235" y="502" name="top"/>
	<anchor x="-235" y="260" name="_top"/>
	<note>
		saraI-thai.narrow
	</note>
	<outline>
		<contour>
			<point x="-621" y="639" type="curve" smooth="yes"/>
			<point x="-247" y="639" type="line" smooth="yes"/>
			<point x="-238" y="639"/>
			<point x="-231" y="644"/>
			<point x="-231" y="655" type="curve" smooth="yes"/>
			<point x="-231" y="684" type="line"/>
			<point x="-254" y="757"/>
			<point x="-324" y="818"/>
			<point x="-434" y="818" type="curve" smooth="yes"/>
			<point x="-543" y="818"/>
			<point x="-614" y="757"/>
			<point x="-637" y="684" type="curve"/>
			<point x="-637" y="655" type="line" smooth="yes"/>
			<point x="-637" y="644"/>
			<point x="-630" y="639"/>
		</contour>
		<contour>
			<point x="-543" y="693" type="line"/>
			<point x="-530" y="730"/>
			<point x="-492" y="758"/>
			<point x="-434" y="758" type="curve" smooth="yes"/>
			<point x="-377" y="758"/>
			<point x="-339" y="730"/>
			<point x="-325" y="693" type="curve"/>
		</contour>
	</outline>
</glyph>
<glyph name="saraUe-thai.narrow" format="2">
	<advance width="0"/>
	<anchor x="-235" y="537" name="top"/>
	<anchor x="-235" y="260" name="_top"/>
	<note>
		saraUe-thai.narrow
	</note>
	<outline>
		<contour>
			<point x="-621" y="639" type="curve" smooth="yes"/>
			<point x="-247" y="639" type="line" smooth="yes"/>
			<point x="-238" y="639"/>
			<point x="-231" y="644"/>
			<point x="-231" y="655" type="curve" smooth="yes"/>
			<point x="-231" y="684" type="line"/>
			<point x="-235" y="695"/>
			<point x="-240" y="707"/>
			<point x="-246" y="718" type="curve"/>
			<point x="-221" y="727"/>
			<point x="-203" y="750"/>
			<point x="-203" y="785" type="curve" smooth="yes"/>
			<point x="-203" y="832"/>
			<point x="-240" y="858"/>
			<point x="-280" y="858" type="curve" smooth="yes"/>
			<point x="-323" y="858"/>
			<point x="-354" y="830"/>
			<point x="-354" y="798" type="curve"/>
			<point x="-374" y="809"/>
			<point x="-406" y="818"/>
			<point x="-442" y="818" type="curve" smooth="yes"/>
			<point x="-543" y="818"/>
			<point x="-614" y="757"/>
			<point x="-637" y="684" type="curve"/>
			<point x="-637" y="655" type="line" smooth="yes"/>
			<point x="-637" y="644"/>
			<point x="-630" y="639"/>
		</contour>
		<contour>
			<point x="-543" y="693" type="line"/>
			<point x="-530" y="730"/>
			<point x="-492" y="758"/>
			<point x="-434" y="758" type="curve" smooth="yes"/>
			<point x="-377" y="758"/>
			<point x="-339" y="729"/>
			<point x="-325" y="693" type="curve"/>
		</contour>
		<contour>
			<point x="-280" y="751" type="curve" smooth="yes"/>
			<point x="-297" y="751"/>
			<point x="-312" y="764"/>
			<point x="-312" y="785" type="curve" smooth="yes"/>
			<point x="-312" y="806"/>
			<point x="-297" y="818"/>
			<point x="-280" y="818" type="curve" smooth="yes"/>
			<point x="-262" y="818"/>
			<point x="-248" y="806"/>
			<point x="-248" y="785" type="curve" smooth="yes"/>
			<point x="-248" y="765"/>
			<point x="-262" y="751"/>
		</contour>
	</outline>
</glyph>
<glyph name="saraUee-thai.narrow" format="2">
	<advance width="0"/>
	<anchor x="-235" y="522" name="top"/>
	<anchor x="-235" y="260" name="_top"/>
	<note>
		saraUee-thai.narrow
	</note>
	<outline>
		<contour>
			<point x="-621" y="640" type="curve" smooth="yes"/>
			<point x="-247" y="640" type="line" smooth="yes"/>
			<point x="-238" y="640"/>
			<point x="-231" y="645"/>
			<point x="-231" y="656" type="curve" smooth="yes"/>
			<point x="-231" y="673" type="line"/>
			<point x="-232" y="677"/>
			<point x="-234" y="680"/>
			<point x="-235" y="684" type="curve"/>
			<point x="-235" y="815" type="line" smooth="yes"/>
			<point x="-235" y="834"/>
			<point x="-245" y="846"/>
			<point x="-267" y="846" type="curve" smooth="yes"/>
			<point x="-283" y="846"/>
			<point x="-291" y="838"/>
			<point x="-291" y="824" type="curve" smooth="yes"/>
			<point x="-291" y="759" type="line"/>
			<point x="-300" y="767"/>
			<point x="-310" y="774"/>
			<point x="-320" y="781" type="curve"/>
			<point x="-320" y="815" type="line" smooth="yes"/>
			<point x="-320" y="834"/>
			<point x="-330" y="846"/>
			<point x="-351" y="846" type="curve" smooth="yes"/>
			<point x="-368" y="846"/>
			<point x="-375" y="838"/>
			<point x="-375" y="824" type="curve" smooth="yes"/>
			<point x="-375" y="807" type="line"/>
			<point x="-395" y="813"/>
			<point x="-416" y="817"/>
			<point x="-438" y="817" type="curve" smooth="yes"/>
			<point x="-543" y="817"/>
			<point x="-614" y="758"/>
			<point x="-637" y="685" type="curve"/>
			<point x="-637" y="656" type="line" smooth="yes"/>
			<point x="-637" y="645"/>
			<point x="-630" y="640"/>
		</contour>
		<contour>
			<point x="-543" y="694" type="line"/>
			<point x="-530" y="731"/>
			<point x="-492" y="759"/>
			<point x="-434" y="759" type="curve" smooth="yes"/>
			<point x="-377" y="759"/>
			<point x="-339" y="731"/>
			<point x="-325" y="694" type="curve"/>
		</contour>
	</outline>
</glyph>
